<mxfile host="app.diagrams.net" modified="2023-09-06T01:32:57.096Z" agent="Mozilla/5.0 (Windows NT 10.0; Win64; x64) AppleWebKit/537.36 (KHTML, like Gecko) Chrome/116.0.0.0 Safari/537.36" version="21.7.0" etag="VeJwr8LOd5SrOD2Bi8BI" type="github">
  <diagram name="第 1 页" id="fvdQje7QBnJbIA5N-9eq">
    <mxGraphModel>
      <root>
        <mxCell id="0" />
        <mxCell id="1" parent="0" />
      </root>
    </mxGraphModel>
  </diagram>
</mxfile>
